<svg width="30" height="30" viewBox="0 0 30 30" fill="none" xmlns="http://www.w3.org/2000/svg">
<path d="M11.3846 20.5786C10.8337 20.1753 10.3473 19.6885 9.94365 19.1379C9.83901 19.3341 9.72472 19.5269 9.60233 19.7159L8.30619 21.7193C8.04335 21.5493 7.73099 21.4503 7.39528 21.4503C6.46879 21.4503 5.71826 22.2008 5.71826 23.1273C5.71826 24.0534 6.46879 24.8043 7.39528 24.8043C8.32145 24.8043 9.07198 24.0534 9.07198 23.1273C9.07198 22.7912 8.97326 22.4789 8.80291 22.2164L10.8063 20.9199C10.9956 20.7975 11.1884 20.6835 11.3846 20.5786Z" fill="#989898" stroke="#989898" stroke-width="0.5"/>
<path d="M9.94348 11.2747C10.3468 10.7238 10.8335 10.2374 11.3844 9.83379C11.1882 9.72915 10.9952 9.61517 10.8061 9.49247L8.80273 8.19633C8.97277 7.93411 9.0718 7.62113 9.0718 7.28541C9.0718 6.35893 8.32127 5.6084 7.39478 5.6084C6.46861 5.6084 5.71777 6.35893 5.71777 7.28541C5.71777 8.21159 6.46861 8.96212 7.39478 8.96212C7.73081 8.96212 8.04317 8.8634 8.3057 8.69305L9.60216 10.6964C9.72454 10.8858 9.83852 11.0785 9.94348 11.2747Z" fill="#989898" stroke="#989898" stroke-width="0.5"/>
<path d="M23.2369 24.8043C24.1634 24.8043 24.9136 24.0538 24.9136 23.1273C24.9136 22.2011 24.1634 21.4503 23.2369 21.4503C22.9009 21.4503 22.5882 21.5493 22.326 21.7196L21.0295 19.7162C20.9071 19.5269 20.7932 19.3341 20.6882 19.1379C20.2846 19.6885 19.7982 20.1753 19.2476 20.5786C19.4438 20.6838 19.6365 20.7975 19.8256 20.9202L21.8289 22.2164C21.6589 22.4789 21.5599 22.7912 21.5599 23.1273C21.5599 24.0538 22.3104 24.8043 23.2369 24.8043Z" fill="#989898" stroke="#989898" stroke-width="0.5"/>
<path d="M24.9134 7.28541C24.9134 6.35924 24.1629 5.6084 23.2364 5.6084C22.3102 5.6084 21.5594 6.35924 21.5594 7.28541C21.5594 7.62144 21.6584 7.93411 21.8288 8.19633L19.8251 9.49278C19.636 9.61517 19.4433 9.72884 19.2471 9.8341C19.7977 10.2374 20.2841 10.7241 20.6877 11.2747C20.793 11.0785 20.9066 10.8861 21.0293 10.6971L22.3255 8.69336C22.5877 8.8634 22.9007 8.96243 23.2364 8.96243C24.1629 8.96243 24.9134 8.2119 24.9134 7.28541Z" fill="#989898" stroke="#989898" stroke-width="0.5"/>
<path d="M21.4273 15.2061C21.4273 11.8362 18.6859 9.09473 15.316 9.09473C11.946 9.09473 9.20459 11.8362 9.20459 15.2061C9.20459 18.576 11.946 21.3175 15.316 21.3175C18.6859 21.3175 21.4273 18.576 21.4273 15.2061ZM15.316 20.0428C12.6489 20.0428 10.4792 17.8731 10.4792 15.2061C10.4792 12.5391 12.6489 10.3694 15.316 10.3694C17.983 10.3694 20.1527 12.5391 20.1527 15.2061C20.1527 17.8731 17.983 20.0428 15.316 20.0428Z" fill="#989898" stroke="#989898" stroke-width="0.5"/>
<path d="M1.23551 8.90074C1.32395 9.19846 1.42859 9.49057 1.55814 9.77116C2.07417 10.8948 2.9365 11.8378 3.9779 12.4354C5.01618 13.0371 6.22855 13.2927 7.36556 13.1517C7.08185 13.1112 6.80251 13.0666 6.53063 12.9944C6.25876 12.9225 5.99312 12.8384 5.73713 12.734C5.48238 12.6266 5.23324 12.5108 4.99812 12.3722C4.76331 12.2333 4.53628 12.0847 4.32451 11.9178C3.47401 11.2551 2.83217 10.3663 2.48089 9.38874C2.30369 8.90042 2.20092 8.39062 2.16541 7.87833C2.14984 7.62203 2.15545 7.36511 2.1704 7.10974C2.19251 6.855 2.22614 6.60181 2.2822 6.35361C2.34137 6.10634 2.40801 5.86125 2.49833 5.62394C2.58926 5.38757 2.69297 5.15587 2.8166 4.93476C2.94086 4.71427 3.07477 4.49908 3.22674 4.29666C3.37996 4.09517 3.54658 3.90426 3.72502 3.72457C3.90502 3.54706 4.09562 3.38014 4.29711 3.22692C4.49953 3.07525 4.71441 2.94041 4.93521 2.81708C5.15632 2.69376 5.38802 2.59006 5.62439 2.49912C5.86138 2.40819 6.1071 2.34279 6.35406 2.28331C6.60226 2.22725 6.85545 2.19362 7.11019 2.1715C7.36525 2.15624 7.62217 2.15188 7.87847 2.16683C8.39045 2.20202 8.89994 2.30573 9.38825 2.4823C10.3652 2.83359 11.2537 3.47512 11.9164 4.32531C12.0836 4.53676 12.2325 4.76348 12.3714 4.99829C12.51 5.23373 12.6255 5.48255 12.7332 5.7373C12.8379 5.99329 12.922 6.25893 12.9939 6.53049C13.0665 6.80237 13.111 7.08171 13.1518 7.36542C13.2938 6.22841 13.0384 5.01573 12.4371 3.97682C11.8395 2.93511 10.8962 2.07247 9.77224 1.55644C9.49133 1.42658 9.19922 1.32225 8.9015 1.2335C8.60253 1.14754 8.29609 1.09055 7.98747 1.0482C7.67792 1.01021 7.36587 0.994325 7.05351 1.0018C6.74147 1.01394 6.42849 1.04197 6.11955 1.09741C5.81062 1.15377 5.50543 1.23225 5.20802 1.33502C4.91154 1.43966 4.62005 1.56143 4.34102 1.70748C4.06323 1.85603 3.7954 2.02327 3.54128 2.2095C3.28872 2.39791 3.04861 2.60251 2.82376 2.82362C2.60328 3.04878 2.39805 3.28858 2.20995 3.54114C2.02403 3.79558 1.85586 4.06278 1.70856 4.34119C1.41956 4.90082 1.20872 5.50124 1.0991 6.11973C1.04367 6.42866 1.01533 6.74133 1.00318 7.05337C0.995709 7.36573 1.01284 7.67778 1.05021 7.98702C1.09256 8.29564 1.14893 8.60239 1.23551 8.90074Z" fill="#989898" stroke="#989898" stroke-width="0.5"/>
<path d="M17.6375 6.53014C17.7088 6.25858 17.7932 5.99294 17.8975 5.73664C18.005 5.48189 18.1208 5.23307 18.2591 4.99763C18.398 4.76282 18.5465 4.53579 18.7138 4.32402C19.3765 3.47353 20.2653 2.83168 21.2428 2.4804C21.7312 2.3032 22.241 2.20043 22.7529 2.16493C23.0096 2.14936 23.2665 2.15496 23.5215 2.16991C23.7763 2.19202 24.0295 2.22565 24.2777 2.28171C24.5249 2.34088 24.7703 2.40752 25.0076 2.49784C25.244 2.58908 25.4757 2.69248 25.6968 2.81611C25.9173 2.94037 26.1322 3.07428 26.3352 3.22626C26.5361 3.37979 26.7273 3.54609 26.9067 3.72453C27.0845 3.90454 27.2514 4.09513 27.4047 4.29662C27.5563 4.49935 27.6912 4.71392 27.8145 4.93472C27.9378 5.15583 28.0412 5.38753 28.1325 5.6239C28.2231 5.8609 28.2885 6.10661 28.348 6.35357C28.404 6.60177 28.438 6.85496 28.4598 7.1097C28.475 7.36476 28.48 7.62168 28.4648 7.87798C28.4292 8.38996 28.3259 8.89945 28.1493 9.38776C27.798 10.365 27.1561 11.2535 26.3063 11.9162C26.0945 12.0831 25.8681 12.232 25.633 12.3709C25.3979 12.5095 25.149 12.6253 24.8943 12.7328C24.6383 12.8374 24.3727 12.9215 24.1011 12.9934C23.8289 13.0663 23.5502 13.1105 23.2659 13.1513C24.4032 13.2933 25.6159 13.038 26.6548 12.4366C27.6965 11.839 28.5591 10.8957 29.0751 9.77175C29.2047 9.49115 29.3093 9.19873 29.3981 8.90101C29.4843 8.60235 29.5407 8.2956 29.5834 7.98698C29.6211 7.67743 29.637 7.36538 29.6295 7.05302C29.6176 6.74098 29.5893 6.42831 29.5342 6.11907C29.4778 5.81045 29.3993 5.50494 29.2963 5.20753C29.1916 4.91106 29.0702 4.61987 28.9241 4.34053C28.7755 4.06274 28.6083 3.79492 28.4221 3.54079C28.234 3.28823 28.0288 3.04812 27.8076 2.82327C27.5825 2.60279 27.343 2.39787 27.0901 2.20946C26.836 2.02354 26.5688 1.85537 26.2901 1.70807C25.7308 1.41907 25.1303 1.20823 24.5119 1.09861C24.2029 1.04318 23.8903 1.01515 23.5779 1.0027C23.2655 0.995221 22.9538 1.01235 22.6446 1.04972C22.3359 1.09207 22.0292 1.14844 21.7305 1.23502C21.4331 1.32346 21.141 1.4281 20.8601 1.55765C19.7365 2.07399 18.7935 2.93601 18.1959 3.97741C17.5945 5.01569 17.3385 6.22806 17.4799 7.36538C17.5207 7.08136 17.5646 6.80202 17.6375 6.53014Z" fill="#989898" stroke="#989898" stroke-width="0.5"/>
<path d="M29.3961 21.5117C29.3076 21.214 29.203 20.9219 29.0734 20.6413C28.5574 19.5177 27.6951 18.5747 26.6537 17.9771C25.6154 17.3754 24.403 17.1197 23.266 17.2608C23.5497 17.3013 23.8291 17.3458 24.1009 17.4184C24.3728 17.49 24.6385 17.5741 24.8944 17.6784C25.1495 17.7859 25.3983 17.9017 25.6338 18.0403C25.8683 18.1792 26.0953 18.3277 26.3071 18.495C27.1576 19.1574 27.7997 20.0462 28.1507 21.0237C28.3279 21.5121 28.4307 22.0218 28.4662 22.5341C28.4817 22.7904 28.4764 23.0474 28.4612 23.3027C28.4394 23.5575 28.4054 23.8107 28.3494 24.0589C28.2902 24.3061 28.2235 24.5512 28.1332 24.7885C28.0423 25.0249 27.9386 25.2566 27.8153 25.4777C27.6907 25.6982 27.5568 25.9134 27.4048 26.1158C27.2516 26.3173 27.085 26.5082 26.9069 26.6879C26.7265 26.8654 26.5359 27.0323 26.3348 27.1856C26.132 27.3372 25.9172 27.4721 25.6964 27.5954C25.4752 27.7187 25.2435 27.8224 25.0072 27.9134C24.7702 28.0043 24.5248 28.0697 24.2775 28.1292C24.0293 28.1852 23.7761 28.2189 23.5217 28.241C23.2663 28.2562 23.0094 28.2606 22.7531 28.2456C22.2411 28.2104 21.7316 28.1067 21.2433 27.9302C20.2664 27.5789 19.3779 26.9374 18.7152 26.0872C18.5479 25.8757 18.3991 25.649 18.2605 25.4142C18.1216 25.1787 18.0061 24.9299 17.8983 24.6752C17.7937 24.4192 17.7096 24.1535 17.6377 23.882C17.5651 23.6101 17.5206 23.3308 17.4798 23.0471C17.3378 24.1841 17.5931 25.3967 18.1945 26.4356C18.7921 27.4774 19.7354 28.34 20.8593 28.856C21.1402 28.9859 21.4323 29.0905 21.7301 29.179C22.029 29.2649 22.3355 29.3219 22.6444 29.3643C22.9537 29.4023 23.2657 29.4181 23.5781 29.4107C23.8901 29.3985 24.2031 29.3705 24.512 29.3151C24.8209 29.2587 25.1261 29.1802 25.4235 29.0774C25.7203 28.9728 26.0115 28.851 26.2909 28.705C26.5683 28.5564 26.8362 28.3895 27.0903 28.203C27.3428 28.0146 27.583 27.81 27.8078 27.5888C28.0283 27.3637 28.2335 27.1239 28.4216 26.8713C28.6078 26.6169 28.7757 26.3497 28.923 26.0713C29.212 25.5117 29.4228 24.9112 29.5325 24.2927C29.5879 23.9838 29.6162 23.6711 29.6284 23.3591C29.6359 23.0467 29.6187 22.7347 29.5817 22.4254C29.539 22.1168 29.4826 21.8101 29.3961 21.5117Z" fill="#989898" stroke="#989898" stroke-width="0.5"/>
<path d="M12.9941 23.8824C12.9225 24.154 12.8384 24.4196 12.7337 24.6759C12.6263 24.9307 12.5104 25.1795 12.3722 25.4149C12.2333 25.6498 12.0847 25.8768 11.9175 26.0886C11.2548 26.939 10.366 27.5809 9.38842 27.9322C8.90011 28.1094 8.39031 28.2121 7.87833 28.2476C7.62172 28.2632 7.3648 28.2576 7.10974 28.2427C6.855 28.2206 6.60181 28.1869 6.35361 28.1309C6.10634 28.0717 5.86093 28.005 5.62394 27.9147C5.38726 27.8235 5.15556 27.7201 4.93445 27.5965C4.71396 27.4722 4.49908 27.3383 4.29634 27.1863C4.09517 27.0328 3.90395 26.8665 3.72457 26.688C3.54675 26.508 3.37983 26.3174 3.22661 26.116C3.07494 25.9132 2.9401 25.6987 2.81708 25.4778C2.69345 25.2567 2.59006 25.025 2.49881 24.7887C2.40819 24.5517 2.34279 24.306 2.28331 24.059C2.22725 23.8108 2.1933 23.5576 2.1715 23.3029C2.15624 23.0478 2.15157 22.7909 2.16652 22.5346C2.20202 22.0226 2.30542 21.5131 2.48199 21.0248C2.83328 20.0476 3.47512 19.1594 4.325 18.4967C4.53676 18.3294 4.76348 18.1806 4.99829 18.0417C5.23342 17.9031 5.48224 17.7873 5.73699 17.6798C5.99298 17.5752 6.25862 17.4911 6.53049 17.4192C6.80237 17.3466 7.0814 17.3021 7.36542 17.2613C6.2281 17.1193 5.01542 17.3746 3.97651 17.976C2.9348 18.5736 2.07216 19.5169 1.55613 20.6408C1.42658 20.9214 1.32194 21.2138 1.23319 21.5116C1.14723 21.8105 1.09055 22.117 1.0482 22.4256C1.01021 22.7351 0.994325 23.0472 1.0018 23.3595C1.01394 23.6716 1.04197 23.9843 1.09741 24.2935C1.15346 24.6024 1.23194 24.9076 1.33502 25.205C1.43966 25.5015 1.56111 25.7927 1.70717 26.072C1.85572 26.3498 2.02296 26.6177 2.20919 26.8718C2.3976 27.1243 2.60251 27.3645 2.82362 27.5893C3.04878 27.8098 3.28858 28.0147 3.54114 28.2031C3.79526 28.389 4.06278 28.5572 4.34119 28.7045C4.90051 28.9935 5.50093 29.2043 6.11941 29.314C6.42866 29.3694 6.74102 29.3974 7.05337 29.4096C7.36573 29.4174 7.67746 29.4002 7.98702 29.3629C8.29564 29.3205 8.60208 29.2641 8.90074 29.1776C9.19814 29.0891 9.49057 28.9845 9.77116 28.8549C10.8948 28.3389 11.8378 27.4766 12.4354 26.4352C13.0367 25.3969 13.2927 24.1845 13.1514 23.0472C13.1109 23.3312 13.0666 23.6106 12.9941 23.8824Z" fill="#989898" stroke="#989898" stroke-width="0.5"/>
<path d="M15.316 10.948C12.9679 10.948 11.0576 12.8583 11.0576 15.2061C11.0576 17.5542 12.9679 19.4645 15.316 19.4645C17.6638 19.4645 19.5741 17.5542 19.5741 15.2061C19.5741 12.8583 17.6638 10.948 15.316 10.948ZM15.316 18.1898C13.6708 18.1898 12.3323 16.8513 12.3323 15.2061C12.3323 13.5611 13.6708 12.2227 15.316 12.2227C16.9613 12.2227 18.2995 13.5611 18.2995 15.2061C18.2995 16.8513 16.9613 18.1898 15.316 18.1898Z" fill="#989898" stroke="#989898" stroke-width="0.5"/>
<path d="M15.3159 13.042C14.1207 13.042 13.1519 14.0108 13.1519 15.2061C13.1519 16.4013 14.1207 17.3705 15.3159 17.3705C16.5112 17.3705 17.48 16.4013 17.48 15.2061C17.48 14.0108 16.5112 13.042 15.3159 13.042Z" fill="#989898" stroke="#989898" stroke-width="0.5"/>
</svg>
