<svg width="29" height="29" viewBox="0 0 29 29" fill="none" xmlns="http://www.w3.org/2000/svg">
<path d="M16.1578 21.3491L15.3272 20.5185L14.9125 20.1037C13.1537 20.3193 11.3171 19.752 9.96794 18.4028C8.61876 17.0536 8.0514 15.2177 8.26756 13.4588L7.85339 13.0447L7.0171 12.2084C6.76065 12.2419 6.50137 12.2583 6.24209 12.2583C4.99333 12.2583 3.80131 11.8793 2.79935 11.1741L0 11.6643L0.00340416 16.7001L2.97807 17.225C3.23281 18.1702 3.6067 19.091 4.10598 19.9613L2.37497 22.4333L5.93458 25.9929L8.4128 24.2619C9.2803 24.7584 10.1971 25.1351 11.1463 25.3927L11.6677 28.3645H16.7002L17.1961 25.5703C16.3371 24.3442 15.9649 22.8367 16.1578 21.3491Z" fill="#989898"/>
<path d="M25.3927 11.1395C25.1352 10.1971 24.7584 9.27973 24.262 8.4128L25.993 5.93401L22.4334 2.37497L19.9614 4.10598C19.0945 3.60954 18.1771 3.23281 17.2279 2.97523L16.7036 0H11.6643L11.1719 2.79424C12.0309 4.02031 12.4025 5.52835 12.209 7.01653L13.46 8.26756C15.2189 8.0514 17.0543 8.61932 18.4029 9.96794C19.7515 11.3166 20.3188 13.1514 20.1032 14.9096L20.518 15.3244L21.3503 16.1573C21.6073 16.1238 21.8666 16.1068 22.127 16.1068C23.3792 16.1068 24.5735 16.488 25.5766 17.1955L28.3646 16.7002L28.368 11.6643L25.3927 11.1395Z" fill="#989898"/>
<path d="M25.3548 18.8873C25.2271 18.7596 25.0944 18.6416 24.9559 18.5321C24.1293 17.8774 23.1273 17.5506 22.1265 17.5506C21.7055 17.5506 21.284 17.6084 20.8761 17.7248L19.6727 16.5214L11.8494 8.69806L10.6415 7.49016C11.0329 6.11432 10.7646 4.58868 9.83637 3.41368C9.72687 3.27411 9.60716 3.14022 9.47893 3.01143C9.3717 2.9042 9.25993 2.80321 9.14533 2.70902C8.30563 2.01911 7.27644 1.67529 6.24839 1.67529C6.05492 1.67529 5.86088 1.68721 5.66855 1.71161C5.38203 1.74792 5.09835 1.81146 4.82261 1.90224C4.82205 1.90224 4.82034 1.90281 4.81978 1.90281L5.61352 2.69654L7.74622 4.82924L4.83169 7.74376L2.69842 5.6105L1.90525 4.81734C1.90525 4.8179 1.90469 4.81846 1.90469 4.8196C1.81334 5.09704 1.74923 5.38185 1.71292 5.66951C1.55973 6.88309 1.89334 8.14659 2.71204 9.14401C2.80622 9.25805 2.90664 9.36925 3.01388 9.47648C3.14266 9.60528 3.27713 9.72442 3.4167 9.83449C4.24277 10.4875 5.24246 10.8143 6.24215 10.8143C6.66313 10.8143 7.08411 10.7565 7.4909 10.6407L8.69881 11.8486L16.5227 19.6725L17.7255 20.8753C17.334 22.2523 17.6047 23.7785 18.5346 24.9529C18.6435 25.0914 18.7621 25.2247 18.8897 25.3523C18.9981 25.4607 19.111 25.5628 19.2273 25.6576C20.0659 26.3458 21.0928 26.6896 22.1191 26.6896C22.3115 26.6896 22.5038 26.6777 22.6956 26.6533C22.9844 26.617 23.2703 26.5529 23.5489 26.461L20.6224 23.5345L23.537 20.62L26.4634 23.5464C26.5547 23.269 26.6183 22.9842 26.6546 22.6971C26.8084 21.4858 26.4776 20.2223 25.66 19.2249C25.5653 19.1085 25.4631 18.9956 25.3548 18.8873Z" fill="#989898"/>
</svg>
