<svg width="150" height="150" viewBox="0 0 150 150" fill="none" xmlns="http://www.w3.org/2000/svg">
<path d="M104.673 60.1636C104.673 68.0333 101.546 75.5807 95.9817 81.1454C90.417 86.7101 82.8696 89.8364 74.9999 89.8364C67.1302 89.8364 59.5828 86.7101 54.0181 81.1454C48.4534 75.5807 45.3271 68.0333 45.3271 60.1636C45.3271 52.2939 48.4534 44.7466 54.0181 39.1818C59.5828 33.6171 67.1302 30.4909 74.9999 30.4909C82.8696 30.4909 90.417 33.6171 95.9817 39.1818C101.546 44.7466 104.673 52.2939 104.673 60.1636Z" fill="#0F1922"/>
<path fill-rule="evenodd" clip-rule="evenodd" d="M71.9733 149.122C32.4084 147.535 0.818115 114.954 0.818115 75C0.818115 34.0294 34.0293 0.818176 74.9999 0.818176C115.971 0.818176 149.182 34.0294 149.182 75C149.182 115.971 115.971 149.182 74.9999 149.182C74.6612 149.184 74.3224 149.184 73.9837 149.182C73.3123 149.182 72.641 149.16 71.9733 149.122ZM27.3975 121.809C26.8428 120.216 26.654 118.519 26.8451 116.843C27.0362 115.167 27.6022 113.556 28.5012 112.129C29.4002 110.702 30.609 109.496 32.038 108.6C33.467 107.704 35.0794 107.141 36.7555 106.954C65.6716 103.753 84.5063 104.042 113.281 107.021C114.96 107.195 116.576 107.751 118.007 108.645C119.439 109.539 120.647 110.747 121.541 112.179C122.434 113.61 122.989 115.227 123.164 116.905C123.338 118.584 123.127 120.28 122.547 121.864C134.879 109.387 141.786 92.5438 141.764 75C141.764 38.1279 111.872 8.23636 74.9999 8.23636C38.1279 8.23636 8.2363 38.1279 8.2363 75C8.2363 93.2339 15.5469 109.762 27.3975 121.809Z" fill="#0F1922"/>
</svg>
